<svg width="74" height="74" viewBox="0 0 74 74" fill="none" xmlns="http://www.w3.org/2000/svg">
<g filter="url(#filter0_d)">
<path d="M42.4992 56.5162L37.0703 61.9451M37.0703 61.9451L31.6414 56.5161M37.0703 61.9451V52.0282M31.6414 17.4289L37.0703 12M37.0703 12L42.4992 17.4289M37.0703 12L37.0703 22.611M56.2528 31.908L61.6817 37.3369L56.2528 42.7659M17.1661 42.7674L11.7371 37.3384L17.1661 31.9095M61.6846 37.3399L51.8712 37.3369M11.7386 37.3399L21.7862 37.3399" stroke="white" stroke-width="2" stroke-miterlimit="10"/>
<circle cx="36.8907" cy="37.1563" r="14.7266" stroke="white" stroke-width="2" stroke-miterlimit="10"/>
<path d="M26.7969 31.8789H29.0929L31.9069 39.9569L34.7349 31.8789H36.9889L33.2229 42.4349H30.5629L26.7969 31.8789Z" fill="white"/>
<path d="M37.9237 42.4349V31.8789H42.6137C43.2764 31.8789 43.827 31.9302 44.2657 32.0329C44.7044 32.1262 45.1104 32.3316 45.4837 32.6489C45.7917 32.9196 46.0297 33.2649 46.1977 33.6849C46.375 34.0956 46.4637 34.5436 46.4637 35.0289C46.4637 35.5142 46.3844 35.9296 46.2257 36.2749C46.067 36.6202 45.8384 36.9702 45.5397 37.3249C45.381 37.5116 45.199 37.7122 44.9937 37.9269C44.7977 38.1416 44.6344 38.3142 44.5037 38.4449L46.9817 42.4349H44.5597L42.3197 38.8089H40.0237V42.4349H37.9237ZM40.0237 33.8529V36.8349H43.3837C43.4397 36.7696 43.519 36.6809 43.6217 36.5689C43.7244 36.4476 43.813 36.3356 43.8877 36.2329C44.0277 36.0462 44.135 35.8642 44.2097 35.6869C44.2937 35.5096 44.3357 35.2902 44.3357 35.0289C44.3357 34.8236 44.3077 34.6509 44.2517 34.5109C44.1957 34.3616 44.093 34.2309 43.9437 34.1189C43.813 34.0162 43.6264 33.9462 43.3837 33.9089C43.1504 33.8716 42.8097 33.8529 42.3617 33.8529H40.0237Z" fill="white"/>
</g>
<defs>
<filter id="filter0_d" x="0.320312" y="0.585938" width="73.1384" height="73.1384" filterUnits="userSpaceOnUse" color-interpolation-filters="sRGB">
<feFlood flood-opacity="0" result="BackgroundImageFix"/>
<feColorMatrix in="SourceAlpha" type="matrix" values="0 0 0 0 0 0 0 0 0 0 0 0 0 0 0 0 0 0 127 0"/>
<feOffset/>
<feGaussianBlur stdDeviation="5"/>
<feColorMatrix type="matrix" values="0 0 0 0 0 0 0 0 0 0 0 0 0 0 0 0 0 0 0.5 0"/>
<feBlend mode="normal" in2="BackgroundImageFix" result="effect1_dropShadow"/>
<feBlend mode="normal" in="SourceGraphic" in2="effect1_dropShadow" result="shape"/>
</filter>
</defs>
</svg>
